<svg width="25" height="25" viewBox="0 0 25 25" fill="none" xmlns="http://www.w3.org/2000/svg">
<rect x="4.5" y="6.33398" width="15.1666" height="15.1666" stroke="#282D31" stroke-linecap="round" stroke-linejoin="round"/>
<path d="M15.4656 6C15.7595 6 16 5.76191 16 5.4709V4.46561C16 3.53968 15.626 2.66667 14.9847 2.00529C14.3168 1.34392 13.4351 1 12.5 1C10.5763 1 9 2.56085 9 4.46561V5.4709C9 5.76191 9.24046 6 9.53435 6C9.82824 6 9.78176 5.86409 9.78176 5.57309V4.46561C9.78176 3.14286 11.1641 1.76218 12.5 1.76218C13.1412 1.76218 13.9914 2.04817 14.4723 2.52436C14.9265 2.9741 15.2541 3.76844 15.2541 4.42982V5.57309C15.2273 5.83764 15.145 6 15.4656 6Z" fill="#282D31"/>
</svg>
