<svg width="25" height="25" viewBox="0 0 25 25" fill="none" xmlns="http://www.w3.org/2000/svg">
<mask id="path-1-inside-1" fill="white">
<path d="M22 22.0005V19.6816C22 18.4516 21.4732 17.272 20.5355 16.4023C19.5979 15.5326 18.3261 15.0439 17 15.0439H7C5.67392 15.0439 4.40215 15.5326 3.46447 16.4023C2.52678 17.272 2 18.4516 2 19.6816V22.0005"/>
</mask>
<path d="M21 22.0005C21 22.5528 21.4477 23.0005 22 23.0005C22.5523 23.0005 23 22.5528 23 22.0005H21ZM17 15.0439V14.0439V15.0439ZM7 15.0439V14.0439V15.0439ZM2 19.6816H1H2ZM1 22.0005C1 22.5528 1.44772 23.0005 2 23.0005C2.55228 23.0005 3 22.5528 3 22.0005H1ZM23 22.0005V19.6816H21V22.0005H23ZM23 19.6816C23 18.1611 22.3481 16.7196 21.2156 15.6691L19.8555 17.1355C20.5983 17.8245 21 18.7422 21 19.6816H23ZM21.2156 15.6691C20.0856 14.621 18.568 14.0439 17 14.0439V16.0439C18.0841 16.0439 19.1101 16.4441 19.8555 17.1355L21.2156 15.6691ZM17 14.0439H7V16.0439H17V14.0439ZM7 14.0439C5.43196 14.0439 3.91441 14.621 2.78442 15.6691L4.14451 17.1355C4.88988 16.4441 5.91588 16.0439 7 16.0439V14.0439ZM2.78442 15.6691C1.6519 16.7196 1 18.1611 1 19.6816H3C3 18.7422 3.40167 17.8245 4.14451 17.1355L2.78442 15.6691ZM1 19.6816V22.0005H3V19.6816H1Z" fill="#282D31" mask="url(#path-1-inside-1)"/>
<path d="M12.0482 11.6618C14.7162 11.6618 16.8791 9.49896 16.8791 6.83092C16.8791 4.16288 14.7162 2 12.0482 2C9.38016 2 7.21729 4.16288 7.21729 6.83092C7.21729 9.49896 9.38016 11.6618 12.0482 11.6618Z" stroke="#282D31"/>
</svg>
