<svg width="25" height="25" viewBox="0 0 25 25" fill="none" xmlns="http://www.w3.org/2000/svg">
<path fill-rule="evenodd" clip-rule="evenodd" d="M21.355 5.53841C20.894 5.06247 20.3475 4.68583 19.7472 4.42917C19.147 4.17253 18.5042 4.04067 17.8555 4.04067C17.2067 4.04067 16.564 4.17253 15.9637 4.42917C15.3634 4.68583 14.8169 5.06247 14.3559 5.5384L12.9267 7.01314L11.4976 5.53849C10.5666 4.57778 9.30737 4.04122 7.99799 4.04122C6.68862 4.04122 5.4294 4.57778 4.49836 5.53849C3.56681 6.49973 3.04067 7.80684 3.04067 9.17309C3.04067 10.5393 3.56681 11.8465 4.49836 12.8077L12.9267 21.5046L21.3551 12.8077C21.8163 12.332 22.1832 11.7661 22.4337 11.1423C22.6842 10.5185 22.8133 9.84928 22.8133 9.17309C22.8133 8.49691 22.6842 7.82771 22.4337 7.20388C22.1832 6.58012 21.8162 6.01412 21.355 5.53841ZM12.9267 23L3.75105 13.5319C2.62809 12.3732 2 10.805 2 9.17309C2 7.54121 2.62809 5.973 3.75105 4.81426C4.87454 3.65497 6.40187 3.00055 7.99799 3.00055C9.57384 3.00055 11.0826 3.63844 12.2019 4.77032C12.2163 4.78489 12.2307 4.79953 12.2449 4.81426L12.9267 5.51778L13.6084 4.81435C13.6227 4.79959 13.6371 4.78491 13.6515 4.77031C14.1986 4.21689 14.8444 3.77593 15.5546 3.4723C16.2835 3.16064 17.0654 3 17.8555 3C18.6455 3 19.4274 3.16064 20.1563 3.4723C20.8852 3.78394 21.5464 4.24025 22.1025 4.81435C22.6587 5.38811 23.0992 6.06844 23.3994 6.81609C23.6996 7.56379 23.854 8.36466 23.854 9.17309C23.854 9.98153 23.6996 10.7824 23.3994 11.5301C23.0992 12.2778 22.6587 12.9581 22.1024 13.5319L12.9267 23Z" fill="#282D31"/>
</svg>
